<svg xmlns="http://www.w3.org/2000/svg" width="40" height="35" viewBox="0 0 40 35"><path d="M583.153,797.69l-10.476.578a1.95,1.95,0,0,0-1.649,2.82l4.739,9.315a1.958,1.958,0,0,1-3.392,1.942l-5.737-8.737a1.959,1.959,0,0,0-3.276,0l-5.737,8.737a1.958,1.958,0,0,1-3.392-1.942l4.739-9.315a1.941,1.941,0,0,0-1.649-2.82l-10.476-.578a1.944,1.944,0,0,1,0-3.883l10.476-.578a1.95,1.95,0,0,0,1.649-2.82l-4.739-9.315a1.958,1.958,0,0,1,3.392-1.942l5.737,8.738a1.96,1.96,0,0,0,3.276,0l5.737-8.738a1.958,1.958,0,0,1,3.392,1.942l-4.739,9.315a1.941,1.941,0,0,0,1.649,2.82l10.476.578A1.944,1.944,0,0,1,583.153,797.69Z" transform="translate(-545 -778.249)" fill="#07e5eb"/></svg>