<svg xmlns="http://www.w3.org/2000/svg" width="754.986" height="720" viewBox="0 0 754.986 720"><path d="M662.636,195.4c-25.94,0-39.517,5.546-51.486,10.434-11.6,4.739-21.634,8.831-42.873,8.831s-31.271-4.092-42.873-8.831c-11.979-4.888-25.555-10.434-51.495-10.434s-39.517,5.546-51.5,10.434c-11.611,4.739-21.634,8.831-42.882,8.831s-31.272-4.092-42.883-8.831c-11.979-4.888-25.555-10.434-51.495-10.434s-39.517,5.546-51.5,10.434c-11.612,4.739-21.635,8.831-42.883,8.831s-31.281-4.092-42.883-8.831c-11.978-4.888-25.555-10.434-51.5-10.434s-39.517,5.546-51.5,10.434C33.271,210.577,23.239,214.669,2,214.669V329.4c25.95,0,39.526-5.546,51.5-10.434,11.612-4.739,21.634-8.831,42.883-8.831s31.281,4.092,42.883,8.831c11.978,4.888,25.555,10.434,51.5,10.434s39.517-5.546,51.5-10.434c11.611-4.739,21.634-8.831,42.873-8.831s31.271,4.092,42.883,8.831C340,323.855,353.581,329.4,379.521,329.4s39.517-5.546,51.495-10.434c11.612-4.739,21.634-8.831,42.874-8.831s31.271,4.092,42.873,8.831c11.978,4.888,25.555,10.434,51.495,10.434s39.517-5.546,51.495-10.434c11.6-4.739,21.635-8.831,42.874-8.831s31.262,4.092,42.873,8.831c11.978,4.888,25.555,10.434,51.486,10.434V214.669c-21.239,0-31.262-4.092-42.874-8.831-11.978-4.888-25.545-10.434-51.485-10.434Z" transform="translate(-2)" fill="rgba(0,0,0,0.1)"/><path d="M662.636,0C636.7,0,623.119,5.545,611.15,10.434c-11.6,4.739-21.634,8.831-42.873,8.831s-31.271-4.092-42.873-8.831C513.425,5.545,499.849,0,473.909,0s-39.517,5.545-51.5,10.434c-11.611,4.739-21.634,8.831-42.882,8.831s-31.272-4.092-42.883-8.831C324.669,5.545,311.093,0,285.153,0s-39.517,5.545-51.5,10.434c-11.612,4.739-21.635,8.831-42.883,8.831s-31.281-4.092-42.883-8.831C135.914,5.545,122.337,0,96.387,0S56.87,5.545,44.883,10.434C33.281,15.173,23.249,19.265,2,19.265V134c25.95,0,39.526-5.545,51.5-10.433,11.612-4.739,21.634-8.831,42.883-8.831s31.281,4.092,42.883,8.831c11.978,4.888,25.555,10.433,51.5,10.433s39.517-5.545,51.5-10.433c11.611-4.739,21.634-8.831,42.873-8.831s31.271,4.092,42.883,8.831C340,128.451,353.581,134,379.521,134s39.517-5.545,51.495-10.433c11.612-4.739,21.634-8.831,42.874-8.831s31.271,4.092,42.873,8.831C528.741,128.451,542.318,134,568.258,134s39.517-5.545,51.495-10.433c11.6-4.739,21.635-8.831,42.874-8.831s31.262,4.092,42.873,8.831C717.478,128.451,731.055,134,756.986,134V19.265c-21.239,0-31.262-4.092-42.874-8.831C702.134,5.545,688.567,0,662.627,0Z" transform="translate(-2)" fill="rgba(0,0,0,0.1)"/><path d="M662.636,392.72c-25.94,0-39.517,5.545-51.486,10.434-11.6,4.739-21.634,8.831-42.873,8.831s-31.271-4.092-42.873-8.831c-11.979-4.889-25.555-10.434-51.495-10.434s-39.517,5.545-51.5,10.434c-11.611,4.739-21.634,8.831-42.882,8.831s-31.272-4.092-42.883-8.831c-11.979-4.889-25.555-10.434-51.495-10.434s-39.517,5.545-51.5,10.434c-11.612,4.739-21.635,8.831-42.883,8.831s-31.281-4.092-42.883-8.831c-11.978-4.889-25.555-10.434-51.5-10.434s-39.517,5.545-51.5,10.434C33.271,407.893,23.239,411.985,2,411.985V526.716c25.95,0,39.526-5.545,51.5-10.433,11.612-4.739,21.634-8.831,42.883-8.831s31.281,4.092,42.883,8.831c11.978,4.888,25.555,10.433,51.5,10.433s39.517-5.545,51.5-10.433c11.611-4.739,21.634-8.831,42.873-8.831s31.271,4.092,42.883,8.831c11.978,4.888,25.555,10.433,51.495,10.433s39.517-5.545,51.495-10.433c11.612-4.739,21.634-8.831,42.874-8.831s31.271,4.092,42.873,8.831c11.978,4.888,25.555,10.433,51.495,10.433s39.517-5.545,51.495-10.433c11.6-4.739,21.635-8.831,42.874-8.831s31.262,4.092,42.873,8.831c11.978,4.888,25.555,10.433,51.486,10.433V411.985c-21.239,0-31.262-4.092-42.874-8.831-11.978-4.889-25.545-10.434-51.485-10.434Z" transform="translate(-2)" fill="rgba(0,0,0,0.1)"/><path d="M662.636,586c-25.94,0-39.517,5.545-51.486,10.433-11.6,4.739-21.634,8.831-42.873,8.831s-31.271-4.092-42.873-8.831C513.425,591.549,499.849,586,473.909,586s-39.517,5.545-51.5,10.433c-11.611,4.739-21.634,8.831-42.882,8.831s-31.272-4.092-42.883-8.831C324.669,591.549,311.093,586,285.153,586s-39.517,5.545-51.5,10.433c-11.612,4.739-21.635,8.831-42.883,8.831s-31.281-4.092-42.883-8.831C135.914,591.549,122.337,586,96.387,586s-39.517,5.545-51.5,10.433C33.271,601.176,23.239,605.268,2,605.268V720c25.95,0,39.526-5.545,51.5-10.434,11.612-4.739,21.634-8.831,42.883-8.831s31.281,4.092,42.883,8.831c11.978,4.889,25.555,10.434,51.5,10.434s39.517-5.545,51.5-10.434c11.611-4.739,21.634-8.831,42.873-8.831s31.271,4.092,42.883,8.831C340,714.455,353.581,720,379.521,720s39.517-5.545,51.495-10.434c11.612-4.739,21.634-8.831,42.874-8.831s31.271,4.092,42.873,8.831C528.741,714.455,542.318,720,568.258,720s39.517-5.545,51.495-10.434c11.6-4.739,21.635-8.831,42.874-8.831s31.262,4.092,42.873,8.831C717.478,714.455,731.055,720,756.986,720V605.268c-21.239,0-31.262-4.092-42.874-8.831C702.134,591.549,688.567,586,662.627,586Z" transform="translate(-2)" fill="rgba(0,0,0,0.1)"/></svg>