<svg xmlns="http://www.w3.org/2000/svg" xmlns:xlink="http://www.w3.org/1999/xlink" width="500" zoomAndPan="magnify" viewBox="0 0 375 374.999991" height="500" preserveAspectRatio="xMidYMid meet" version="1.0"><defs><g/><clipPath id="3ebf2e5c76"><path d="M 43.5 140 L 331.5 140 L 331.5 214 L 43.5 214 Z M 43.5 140 " clip-rule="nonzero"/></clipPath><clipPath id="81737ef88c"><path d="M 267 82.25 L 317 82.25 L 317 132 L 267 132 Z M 267 82.25 " clip-rule="nonzero"/></clipPath></defs><path fill="#ffffff" d="M 84.726562 168.953125 C 84.636719 170.960938 84.582031 172.984375 84.609375 175.007812 C 84.175781 175.832031 83.773438 176.671875 83.410156 177.511719 C 83.726562 174.621094 84.175781 171.757812 84.726562 168.953125 Z M 125.984375 105.5625 C 124.148438 107.613281 122.488281 109.898438 120.972656 112.386719 C 117.523438 114.121094 114.34375 116 111.457031 118.027344 C 115.890625 113.441406 120.757812 109.25 125.984375 105.5625 Z M 258.023438 118.011719 C 255.136719 115.988281 251.945312 114.09375 248.492188 112.371094 C 246.976562 109.855469 245.285156 107.558594 243.4375 105.488281 C 248.175781 108.828125 252.667969 112.589844 256.839844 116.769531 C 257.242188 117.15625 257.632812 117.59375 258.023438 118.011719 Z M 284.871094 174.996094 C 284.914062 172.941406 284.855469 170.917969 284.753906 168.894531 C 285.304688 171.699219 285.722656 174.519531 286.039062 177.382812 C 285.695312 176.585938 285.304688 175.777344 284.871094 174.996094 Z M 284.464844 210.304688 C 284.25 206.445312 283.167969 202.683594 281.261719 199.027344 C 283.167969 192.304688 284.335938 185.464844 284.726562 178.625 C 285.75 181.082031 286.371094 183.585938 286.648438 186.113281 C 286.660156 187.054688 286.703125 188.007812 286.703125 188.960938 C 286.703125 196.222656 285.9375 203.363281 284.464844 210.304688 Z M 254.542969 263.339844 C 254.789062 262.980469 255.003906 262.605469 255.222656 262.226562 C 256.03125 261.621094 256.8125 260.984375 257.605469 260.347656 C 257.34375 260.609375 257.097656 260.898438 256.839844 261.15625 C 256.089844 261.910156 255.308594 262.617188 254.542969 263.339844 Z M 111.816406 260.289062 C 112.613281 260.941406 113.40625 261.59375 114.214844 262.199219 C 114.429688 262.574219 114.664062 262.949219 114.90625 263.328125 C 114.140625 262.605469 113.375 261.894531 112.625 261.15625 C 112.351562 260.867188 112.089844 260.578125 111.816406 260.289062 Z M 94.847656 164.902344 C 94.933594 171.554688 95.773438 178.378906 97.417969 185.347656 C 97.550781 185.867188 97.679688 186.390625 97.808594 186.910156 C 96.882812 187.71875 96.003906 188.542969 95.167969 189.382812 C 92.625 191.925781 90.53125 194.558594 88.914062 197.234375 C 87.078125 190.367188 86.039062 183.394531 85.808594 176.414062 C 87.871094 172.363281 90.921875 168.503906 94.847656 164.902344 Z M 89.214844 153.21875 C 91.195312 149.402344 94.070312 145.789062 97.722656 142.433594 C 95.886719 148.910156 94.921875 155.691406 94.832031 162.675781 C 93.835938 163.542969 92.882812 164.425781 91.988281 165.308594 C 89.476562 167.835938 87.410156 170.410156 85.75 173.058594 C 85.765625 169.066406 86.054688 165.089844 86.601562 161.144531 C 87.367188 158.453125 88.25 155.808594 89.214844 153.21875 Z M 104.769531 125.6875 C 104.078125 126.890625 103.414062 128.117188 102.792969 129.363281 C 102.011719 130.042969 101.261719 130.707031 100.554688 131.414062 C 101.894531 129.449219 103.296875 127.523438 104.769531 125.6875 Z M 117.160156 119.949219 C 112.582031 122.277344 108.511719 124.820312 105 127.554688 C 106.113281 125.515625 107.339844 123.519531 108.65625 121.566406 C 111.917969 118.894531 115.703125 116.421875 119.90625 114.207031 C 118.90625 116.03125 117.984375 117.9375 117.160156 119.949219 Z M 139.011719 106.574219 C 138.144531 108.382812 137.363281 110.320312 136.671875 112.359375 C 133.753906 113.210938 130.921875 114.152344 128.179688 115.164062 C 124.828125 116.421875 121.695312 117.75 118.75 119.183594 C 119.660156 117.085938 120.667969 115.105469 121.78125 113.238281 C 126.964844 110.664062 132.757812 108.425781 139.011719 106.574219 Z M 131.082031 102.164062 C 132.570312 101.238281 134.070312 100.355469 135.601562 99.519531 C 139.023438 97.941406 142.738281 96.539062 146.664062 95.339844 C 143.949219 98.113281 141.625 101.398438 139.675781 105.199219 C 133.636719 106.949219 127.992188 109.046875 122.894531 111.445312 C 125.246094 107.859375 127.992188 104.753906 131.082031 102.164062 Z M 148.441406 93.632812 C 148.179688 93.691406 147.921875 93.761719 147.660156 93.851562 C 147.980469 93.71875 148.296875 93.605469 148.613281 93.488281 C 148.554688 93.53125 148.5 93.574219 148.441406 93.632812 Z M 165.902344 90.046875 C 160.671875 90.726562 155.632812 91.710938 150.851562 92.96875 C 150.882812 92.867188 150.894531 92.75 150.882812 92.648438 C 156.167969 90.785156 161.640625 89.339844 167.289062 88.371094 C 166.796875 88.875 166.335938 89.441406 165.902344 90.046875 Z M 218.628906 92.9375 C 213.847656 91.679688 208.808594 90.699219 203.566406 90.019531 C 203.144531 89.425781 202.699219 88.875 202.222656 88.371094 C 207.808594 89.339844 213.296875 90.742188 218.613281 92.605469 C 218.582031 92.722656 218.582031 92.824219 218.628906 92.9375 Z M 220.980469 93.574219 C 220.9375 93.53125 220.878906 93.488281 220.824219 93.429688 C 221.140625 93.558594 221.472656 93.675781 221.789062 93.804688 C 221.53125 93.734375 221.253906 93.648438 220.980469 93.574219 Z M 250.730469 119.152344 C 247.785156 117.738281 244.652344 116.390625 241.316406 115.148438 C 238.554688 114.136719 235.726562 113.195312 232.824219 112.34375 C 232.128906 110.304688 231.335938 108.382812 230.46875 106.546875 C 236.722656 108.410156 242.511719 110.636719 247.683594 113.226562 C 248.808594 115.089844 249.820312 117.070312 250.730469 119.152344 Z M 260.796875 121.523438 C 262.125 123.476562 263.351562 125.472656 264.464844 127.511719 C 260.957031 124.792969 256.898438 122.246094 252.320312 119.933594 C 251.496094 117.925781 250.570312 116 249.5625 114.179688 C 253.761719 116.40625 257.53125 118.851562 260.796875 121.523438 Z M 266.660156 129.316406 C 266.039062 128.046875 265.359375 126.800781 264.652344 125.558594 C 266.167969 127.480469 267.628906 129.433594 269 131.429688 C 268.25 130.722656 267.46875 129.996094 266.660156 129.316406 Z M 277.519531 165.308594 C 276.609375 164.410156 275.65625 163.542969 274.660156 162.660156 C 274.558594 155.605469 273.578125 148.765625 271.714844 142.230469 C 275.367188 145.613281 278.242188 149.257812 280.25 153.117188 C 281.246094 155.777344 282.125 158.484375 282.890625 161.230469 C 283.441406 165.148438 283.714844 169.082031 283.730469 173.042969 C 282.082031 170.398438 280.019531 167.824219 277.519531 165.308594 Z M 273.996094 189.382812 C 273.246094 188.617188 272.4375 187.878906 271.613281 187.15625 C 271.773438 186.546875 271.929688 185.941406 272.0625 185.347656 C 273.722656 178.378906 274.558594 171.554688 274.632812 164.917969 C 275.210938 165.4375 275.773438 165.972656 276.308594 166.523438 C 279.5 169.703125 281.953125 173.015625 283.6875 176.398438 C 283.457031 183.496094 282.371094 190.609375 280.464844 197.609375 C 278.820312 194.789062 276.652344 192.042969 273.996094 189.382812 Z M 276.261719 209.84375 C 274.703125 207.210938 272.667969 204.664062 270.199219 202.179688 C 269.359375 201.355469 268.492188 200.558594 267.585938 199.75 C 269.027344 195.976562 270.285156 192.1875 271.308594 188.382812 C 271.945312 188.976562 272.582031 189.570312 273.203125 190.175781 C 276.105469 193.082031 278.386719 196.089844 280.046875 199.15625 C 279.007812 202.757812 277.738281 206.328125 276.261719 209.84375 Z M 283.296875 213.804688 C 282.328125 216.40625 281.273438 218.894531 280.132812 221.292969 C 279.800781 217.808594 278.746094 214.398438 276.957031 211.070312 C 278.445312 207.628906 279.730469 204.160156 280.796875 200.632812 C 282.515625 204.261719 283.382812 207.992188 283.382812 211.792969 C 283.382812 212.460938 283.355469 213.140625 283.296875 213.804688 Z M 280.234375 223.652344 C 280.753906 222.636719 281.246094 221.597656 281.738281 220.542969 C 281.246094 222.03125 280.742188 223.492188 280.191406 224.964844 C 280.21875 224.519531 280.234375 224.097656 280.234375 223.652344 Z M 235.8125 271.597656 C 236.507812 269.949219 236.867188 268.273438 236.925781 266.535156 C 243.554688 263.082031 250.441406 258.640625 256.984375 253.046875 C 256.796875 255.894531 255.902344 258.714844 254.371094 261.445312 C 248.621094 265.683594 242.269531 269.039062 235.8125 271.597656 Z M 225.921875 282.382812 C 225.832031 282.414062 225.746094 282.457031 225.660156 282.472656 C 227.148438 281.515625 228.519531 280.535156 229.746094 279.476562 C 231.839844 278.855469 233.921875 278.105469 235.941406 277.28125 C 232.691406 279.160156 229.355469 280.867188 225.921875 282.382812 Z M 139.617188 279.433594 C 140.800781 280.476562 142.128906 281.457031 143.574219 282.382812 C 143.546875 282.382812 143.515625 282.371094 143.488281 282.355469 C 140.078125 280.851562 136.730469 279.144531 133.492188 277.25 C 135.488281 278.074219 137.539062 278.8125 139.617188 279.433594 Z M 112.496094 253.046875 C 119.039062 258.628906 125.925781 263.066406 132.554688 266.523438 C 132.597656 268.242188 132.960938 269.933594 133.636719 271.582031 C 127.199219 269.007812 120.84375 265.667969 115.09375 261.433594 C 113.566406 258.699219 112.667969 255.878906 112.496094 253.046875 Z M 89.230469 223.605469 C 89.230469 224.054688 89.257812 224.488281 89.273438 224.953125 C 88.710938 223.449219 88.191406 221.945312 87.699219 220.425781 C 88.191406 221.511719 88.695312 222.582031 89.230469 223.605469 Z M 101.894531 199.734375 C 100.984375 200.542969 100.105469 201.339844 99.28125 202.179688 C 96.796875 204.652344 94.789062 207.210938 93.230469 209.8125 C 91.699219 206.183594 90.398438 202.496094 89.332031 198.765625 C 91.425781 195.019531 94.402344 191.464844 98.125 188.136719 C 99.152344 192.015625 100.421875 195.890625 101.894531 199.734375 Z M 114.199219 177.496094 C 115.007812 181.558594 115.992188 185.652344 117.144531 189.730469 C 111.703125 192.460938 106.878906 195.554688 102.820312 198.953125 C 101.347656 195.078125 100.089844 191.191406 99.078125 187.316406 C 103.28125 183.714844 108.367188 180.433594 114.199219 177.496094 Z M 113.59375 131.644531 C 112.410156 137.113281 111.703125 143.011719 111.570312 149.328125 C 111.542969 150.125 111.558594 150.921875 111.558594 151.714844 C 105.652344 154.664062 100.410156 158.003906 96.003906 161.679688 C 96.191406 154.507812 97.304688 147.582031 99.355469 140.972656 C 103.355469 137.574219 108.148438 134.453125 113.59375 131.644531 Z M 113.925781 130.113281 C 108.625 132.804688 103.945312 135.765625 99.988281 138.949219 C 101.042969 135.898438 102.285156 132.917969 103.730469 130.011719 C 107.371094 126.890625 111.703125 124.027344 116.597656 121.453125 C 115.558594 124.183594 114.648438 127.078125 113.925781 130.113281 Z M 134.085938 122.277344 C 129.941406 123.492188 125.957031 124.863281 122.199219 126.367188 C 119.789062 127.351562 117.476562 128.378906 115.269531 129.449219 C 116.046875 126.367188 116.988281 123.417969 118.097656 120.671875 C 123.53125 117.9375 129.636719 115.566406 136.238281 113.601562 C 135.386719 116.304688 134.648438 119.195312 134.085938 122.277344 Z M 159.429688 108.640625 C 158.984375 111.359375 158.609375 114.207031 158.332031 117.144531 C 150.289062 118.257812 142.550781 119.847656 135.300781 121.914062 C 135.90625 118.804688 136.65625 115.914062 137.566406 113.210938 C 144.382812 111.246094 151.71875 109.710938 159.429688 108.640625 Z M 160.816406 101.933594 C 160.371094 103.695312 159.980469 105.546875 159.617188 107.5 C 152.09375 108.527344 144.832031 110.015625 138 111.953125 C 138.734375 109.898438 139.546875 107.960938 140.453125 106.140625 C 146.824219 104.332031 153.667969 102.914062 160.816406 101.933594 Z M 184.167969 99.199219 C 176.675781 99.214844 169.324219 99.691406 162.289062 100.585938 C 163.402344 96.757812 164.804688 93.53125 166.480469 91.117188 C 172.210938 90.363281 178.132812 89.976562 184.167969 89.945312 Z M 207.203125 100.585938 C 200.15625 99.691406 192.804688 99.214844 185.296875 99.199219 L 185.296875 89.945312 C 191.363281 89.960938 197.28125 90.351562 202.972656 91.074219 C 204.675781 93.503906 206.0625 96.726562 207.203125 100.585938 Z M 209.859375 107.484375 C 209.515625 105.546875 209.125 103.683594 208.664062 101.917969 C 215.824219 102.902344 222.65625 104.316406 229.023438 106.125 C 229.933594 107.949219 230.757812 109.898438 231.496094 111.953125 C 224.648438 110 217.398438 108.511719 209.859375 107.484375 Z M 234.179688 121.871094 C 226.988281 119.832031 219.261719 118.226562 211.160156 117.113281 C 210.871094 114.179688 210.511719 111.34375 210.050781 108.640625 C 217.773438 109.695312 225.113281 111.246094 231.929688 113.195312 C 232.824219 115.898438 233.574219 118.777344 234.179688 121.871094 Z M 254.210938 129.375 C 248.535156 126.628906 242.226562 124.230469 235.394531 122.234375 C 234.816406 119.152344 234.109375 116.289062 233.242188 113.585938 C 239.855469 115.566406 245.949219 117.925781 251.378906 120.644531 C 252.492188 123.390625 253.429688 126.3125 254.210938 129.375 Z M 255.554688 130.027344 C 254.816406 127.003906 253.921875 124.140625 252.882812 121.4375 C 257.777344 123.996094 262.097656 126.859375 265.734375 129.984375 C 267.164062 132.847656 268.421875 135.808594 269.460938 138.832031 C 265.476562 135.636719 260.796875 132.671875 255.554688 130.027344 Z M 257.9375 151.703125 C 257.9375 150.921875 257.9375 150.125 257.921875 149.328125 C 257.777344 142.9375 257.070312 136.953125 255.859375 131.429688 C 261.289062 134.21875 266.082031 137.359375 270.066406 140.769531 C 272.148438 147.449219 273.304688 154.433594 273.492188 161.664062 C 269.070312 158.003906 263.84375 154.664062 257.9375 151.703125 Z M 252.332031 189.730469 C 253.488281 185.695312 254.457031 181.660156 255.25 177.65625 C 261.101562 180.621094 266.167969 183.929688 270.34375 187.546875 C 269.347656 191.347656 268.117188 195.179688 266.675781 198.96875 C 262.601562 195.554688 257.777344 192.476562 252.332031 189.730469 Z M 261.765625 210.1875 C 257.980469 207.023438 253.503906 204.144531 248.449219 201.601562 C 249.777344 198.027344 250.960938 194.441406 252.015625 190.828125 C 257.445312 193.574219 262.226562 196.667969 266.242188 200.082031 C 264.914062 203.480469 263.425781 206.847656 261.765625 210.1875 Z M 270.933594 220.671875 C 269.445312 218.128906 267.496094 215.640625 265.085938 213.210938 C 264.320312 212.445312 263.484375 211.691406 262.644531 210.957031 C 264.320312 207.628906 265.808594 204.261719 267.152344 200.878906 C 267.917969 201.570312 268.683594 202.265625 269.390625 202.972656 C 272.03125 205.632812 274.125 208.351562 275.699219 211.15625 C 274.285156 214.367188 272.710938 217.550781 270.933594 220.671875 Z M 212.144531 274.402344 C 212.054688 273.550781 211.824219 272.695312 211.449219 271.859375 C 219.652344 268.691406 227.320312 264.832031 234.382812 260.320312 C 235.277344 262.113281 235.742188 263.964844 235.785156 265.855469 C 226.917969 270.410156 218.539062 273.160156 212.144531 274.402344 Z M 211.722656 277.773438 C 211.984375 277.0625 212.128906 276.3125 212.171875 275.558594 C 218.539062 274.316406 226.875 271.625 235.753906 267.128906 C 235.625 268.835938 235.148438 270.527344 234.339844 272.160156 C 226.554688 275.097656 218.726562 276.933594 211.722656 277.773438 Z M 205.976562 284.191406 C 206.972656 283.570312 207.867188 282.890625 208.648438 282.183594 C 214.484375 282.570312 220.808594 281.863281 227.046875 280.246094 C 225.34375 281.488281 223.40625 282.660156 221.3125 283.714844 C 216.488281 284.886719 212.605469 284.914062 205.976562 284.191406 Z M 171.011719 287.417969 C 175.101562 288.601562 179.808594 289.28125 184.734375 289.28125 C 187.171875 289.28125 189.527344 289.121094 191.765625 288.832031 C 192.515625 289.570312 193.296875 290.179688 194.089844 290.625 C 191 290.902344 187.882812 291.058594 184.734375 291.058594 C 177.828125 291.058594 171.027344 290.367188 164.398438 289.035156 C 166.710938 288.832031 168.847656 288.296875 171.011719 287.417969 Z M 160.875 282.183594 C 161.65625 282.890625 162.550781 283.570312 163.546875 284.191406 C 156.875 284.914062 152.988281 284.886719 148.136719 283.699219 C 146.042969 282.644531 144.121094 281.488281 142.417969 280.230469 C 148.671875 281.863281 155.027344 282.570312 160.875 282.183594 Z M 157.308594 275.558594 C 157.351562 276.296875 157.496094 277.046875 157.757812 277.773438 C 150.75 276.917969 142.910156 275.097656 135.125 272.148438 C 134.316406 270.511719 133.839844 268.835938 133.726562 267.128906 C 142.59375 271.613281 150.925781 274.316406 157.308594 275.558594 Z M 135.082031 260.289062 C 142.160156 264.832031 149.828125 268.691406 158.03125 271.84375 C 157.640625 272.683594 157.410156 273.535156 157.324219 274.402344 C 150.925781 273.144531 142.5625 270.398438 133.683594 265.84375 C 133.726562 263.933594 134.214844 262.082031 135.082031 260.289062 Z M 97.910156 221.800781 C 96.25 224.921875 95.28125 228.132812 95.023438 231.429688 C 93.359375 228.855469 91.800781 226.195312 90.371094 223.363281 C 90.414062 219.601562 91.351562 215.945312 93.101562 212.429688 C 94.53125 215.609375 96.132812 218.734375 97.910156 221.800781 Z M 106.847656 210.941406 C 105.984375 211.691406 105.160156 212.445312 104.378906 213.210938 C 101.984375 215.625 100.03125 218.113281 98.546875 220.65625 C 96.785156 217.535156 95.195312 214.367188 93.792969 211.15625 C 95.816406 207.527344 98.703125 204.085938 102.328125 200.878906 C 103.671875 204.246094 105.175781 207.617188 106.847656 210.941406 Z M 121.046875 201.585938 C 115.976562 204.128906 111.5 207.007812 107.714844 210.175781 C 106.054688 206.847656 104.566406 203.464844 103.238281 200.082031 C 107.210938 196.726562 112.003906 193.632812 117.476562 190.871094 C 118.53125 194.457031 119.714844 198.042969 121.046875 201.585938 Z M 137.132812 183.28125 C 137.914062 186.9375 138.792969 190.640625 139.777344 194.355469 C 133.335938 196.222656 127.398438 198.476562 122.054688 201.078125 C 120.742188 197.523438 119.558594 193.953125 118.503906 190.367188 C 124.078125 187.648438 130.347656 185.261719 137.132812 183.28125 Z M 134.589844 169.601562 C 135.226562 173.707031 135.976562 177.886719 136.875 182.125 C 130.101562 184.089844 123.816406 186.460938 118.1875 189.222656 C 117.03125 185.132812 116.046875 181.039062 115.238281 176.976562 C 121.046875 174.140625 127.542969 171.65625 134.589844 169.601562 Z M 132.410156 145.46875 C 132.554688 152.699219 133.234375 160.40625 134.417969 168.429688 C 127.386719 170.46875 120.871094 172.925781 115.007812 175.789062 C 113.535156 168.039062 112.757812 160.40625 112.667969 153.074219 C 118.574219 150.152344 125.203125 147.609375 132.410156 145.46875 Z M 132.800781 131.804688 C 132.46875 135.578125 132.339844 139.554688 132.367188 143.675781 C 125.261719 145.757812 118.648438 148.273438 112.683594 151.152344 C 112.683594 150.558594 112.683594 149.953125 112.699219 149.359375 C 112.84375 142.78125 113.59375 136.621094 114.894531 130.980469 C 120.597656 128.160156 126.953125 125.675781 133.855469 123.59375 C 133.40625 126.210938 133.046875 128.929688 132.800781 131.804688 Z M 157.480469 138.414062 C 149.046875 139.554688 141.003906 141.21875 133.492188 143.34375 C 133.464844 139.425781 133.609375 135.59375 133.925781 131.890625 C 134.1875 128.871094 134.578125 125.976562 135.054688 123.261719 C 142.289062 121.132812 150.074219 119.472656 158.21875 118.328125 C 157.65625 124.808594 157.4375 131.691406 157.480469 138.414062 Z M 184.167969 116.476562 L 184.167969 136.621094 C 175.332031 136.648438 166.695312 137.226562 158.40625 138.296875 C 158.390625 131.125 158.652344 124.34375 159.214844 118.183594 C 167.242188 117.113281 175.605469 116.523438 184.167969 116.476562 Z M 184.167969 106.949219 L 184.167969 115.351562 C 175.75 115.378906 167.402344 115.945312 159.328125 117 C 159.632812 114.019531 160.007812 111.15625 160.484375 108.511719 C 168.066406 107.515625 176.011719 106.980469 184.167969 106.949219 Z M 184.167969 105.808594 C 176.140625 105.835938 168.285156 106.355469 160.6875 107.339844 C 161.0625 105.386719 161.480469 103.523438 161.945312 101.789062 C 169.09375 100.847656 176.542969 100.355469 184.167969 100.328125 Z M 185.296875 105.808594 L 185.296875 100.328125 C 192.9375 100.355469 200.386719 100.847656 207.535156 101.773438 C 208.011719 103.507812 208.417969 105.375 208.792969 107.339844 C 201.195312 106.355469 193.324219 105.835938 185.296875 105.808594 Z M 185.296875 115.351562 L 185.296875 106.949219 C 193.46875 106.964844 201.414062 107.5 209.007812 108.496094 C 209.472656 111.15625 209.847656 113.992188 210.148438 116.96875 C 202.191406 115.929688 193.84375 115.378906 185.296875 115.351562 Z M 211.074219 138.296875 C 202.800781 137.214844 194.148438 136.632812 185.296875 136.621094 L 185.296875 116.476562 C 193.902344 116.507812 202.265625 117.085938 210.265625 118.125 C 210.84375 124.300781 211.101562 131.109375 211.074219 138.296875 Z M 235.566406 131.890625 C 235.886719 135.59375 236.015625 139.425781 235.984375 143.34375 C 228.492188 141.21875 220.445312 139.554688 212.011719 138.414062 C 212.042969 131.660156 211.839844 124.761719 211.261719 118.257812 C 219.4375 119.386719 227.191406 121.019531 234.398438 123.085938 C 234.902344 125.878906 235.292969 128.8125 235.566406 131.890625 Z M 237.113281 143.675781 C 237.15625 139.554688 237.011719 135.578125 236.695312 131.804688 C 236.433594 128.882812 236.074219 126.109375 235.609375 123.433594 C 242.511719 125.488281 248.867188 127.945312 254.558594 130.765625 C 255.871094 136.476562 256.636719 142.691406 256.796875 149.359375 C 256.8125 149.953125 256.796875 150.558594 256.8125 151.152344 C 250.847656 148.261719 244.230469 145.757812 237.113281 143.675781 Z M 235.046875 168.53125 C 236.261719 160.449219 236.9375 152.699219 237.082031 145.410156 C 244.246094 147.535156 250.875 150.097656 256.8125 153.046875 C 256.738281 160.421875 255.929688 168.128906 254.457031 175.933594 C 248.609375 173.058594 242.082031 170.585938 235.046875 168.53125 Z M 232.605469 182.136719 C 233.503906 177.929688 234.238281 173.796875 234.875 169.730469 C 235.726562 169.976562 236.59375 170.210938 237.445312 170.46875 C 243.539062 172.390625 249.140625 174.621094 254.210938 177.121094 C 253.417969 181.140625 252.449219 185.1875 251.308594 189.222656 C 245.660156 186.476562 239.394531 184.089844 232.605469 182.136719 Z M 229.71875 194.355469 C 230.699219 190.625 231.582031 186.910156 232.359375 183.238281 C 239.132812 185.1875 245.386719 187.574219 250.992188 190.320312 C 249.9375 193.921875 248.753906 197.523438 247.4375 201.09375 C 242.09375 198.492188 236.144531 196.222656 229.71875 194.355469 Z M 243.597656 210.578125 C 241.316406 215.726562 238.800781 220.699219 236.058594 225.488281 C 231.726562 223.363281 226.902344 221.523438 221.6875 220.007812 C 223.234375 215.828125 224.707031 211.519531 226.078125 207.125 C 227.292969 203.207031 228.417969 199.316406 229.445312 195.46875 C 235.828125 197.304688 241.734375 199.546875 247.046875 202.148438 C 245.964844 204.984375 244.839844 207.804688 243.597656 210.578125 Z M 247.582031 232.804688 C 244.578125 230.300781 241.039062 228.015625 237.070312 225.992188 C 239.8125 221.191406 242.339844 216.203125 244.636719 211.042969 C 245.863281 208.265625 247.003906 205.476562 248.058594 202.65625 C 253.070312 205.199219 257.503906 208.0625 261.230469 211.214844 C 257.460938 218.632812 252.882812 225.878906 247.582031 232.804688 Z M 250.398438 235.363281 C 249.777344 234.742188 249.113281 234.132812 248.433594 233.539062 C 253.734375 226.628906 258.328125 219.398438 262.109375 211.980469 C 262.863281 212.660156 263.597656 213.328125 264.277344 214.019531 C 266.804688 216.550781 268.796875 219.140625 270.269531 221.800781 C 269.878906 222.480469 269.492188 223.160156 269.085938 223.824219 C 265.113281 230.257812 260.492188 236.230469 255.308594 241.695312 C 254.066406 239.511719 252.433594 237.414062 250.398438 235.363281 Z M 231.394531 254.332031 C 231.003906 253.957031 230.585938 253.582031 230.167969 253.21875 C 236.363281 247.710938 242.226562 241.480469 247.523438 234.742188 C 247.597656 234.640625 247.667969 234.523438 247.742188 234.4375 C 248.390625 235 249.011719 235.578125 249.589844 236.15625 C 251.65625 238.226562 253.273438 240.367188 254.484375 242.550781 C 248.636719 248.578125 242.035156 253.972656 234.800781 258.683594 C 233.933594 257.195312 232.792969 255.75 231.394531 254.332031 Z M 209.167969 268.632812 C 209.082031 268.546875 209.007812 268.488281 208.921875 268.417969 C 215.867188 264.613281 222.757812 259.699219 229.3125 253.972656 C 229.761719 254.347656 230.195312 254.738281 230.597656 255.144531 C 231.941406 256.503906 233.027344 257.890625 233.863281 259.308594 C 226.785156 263.832031 219.117188 267.695312 210.914062 270.847656 C 210.453125 270.078125 209.875 269.34375 209.167969 268.632812 Z M 140.136719 253.941406 C 146.707031 259.683594 153.609375 264.597656 160.558594 268.402344 C 160.472656 268.488281 160.382812 268.546875 160.3125 268.632812 C 159.605469 269.34375 159.027344 270.078125 158.550781 270.847656 C 150.347656 267.695312 142.691406 263.820312 135.617188 259.308594 C 136.714844 257.414062 138.246094 255.621094 140.136719 253.941406 Z M 121.722656 234.421875 C 121.8125 234.523438 121.882812 234.640625 121.96875 234.742188 C 127.253906 241.480469 133.117188 247.710938 139.3125 253.207031 C 138.894531 253.582031 138.476562 253.957031 138.070312 254.332031 C 136.671875 255.734375 135.53125 257.195312 134.664062 258.683594 C 127.441406 253.972656 120.84375 248.5625 114.996094 242.550781 C 116.570312 239.6875 118.851562 236.953125 121.722656 234.421875 Z M 121.046875 233.527344 C 120.367188 234.121094 119.703125 234.742188 119.082031 235.363281 C 117.03125 237.402344 115.414062 239.511719 114.171875 241.667969 C 108.972656 236.214844 104.367188 230.257812 100.410156 223.824219 C 99.988281 223.160156 99.613281 222.480469 99.210938 221.800781 C 101.128906 218.328125 103.890625 215.046875 107.371094 211.980469 C 111.167969 219.386719 115.746094 226.613281 121.046875 233.527344 Z M 124.859375 211.042969 C 127.140625 216.191406 129.667969 221.179688 132.410156 225.980469 C 128.4375 228.015625 124.902344 230.300781 121.910156 232.789062 C 116.613281 225.878906 112.019531 218.632812 108.25 211.214844 C 111.945312 208.105469 116.378906 205.242188 121.433594 202.699219 C 122.503906 205.503906 123.644531 208.28125 124.859375 211.042969 Z M 143.414062 207.125 C 144.789062 211.519531 146.261719 215.828125 147.792969 220.007812 C 142.578125 221.511719 137.753906 223.363281 133.421875 225.488281 C 130.691406 220.699219 128.164062 215.726562 125.882812 210.578125 C 124.65625 207.816406 123.53125 205.011719 122.460938 202.179688 C 127.730469 199.621094 133.636719 197.363281 140.066406 195.511719 C 141.089844 199.34375 142.1875 203.234375 143.414062 207.125 Z M 161.308594 191.074219 C 162.449219 199.820312 163.777344 208.351562 165.25 216.347656 C 159.546875 217.128906 154.101562 218.242188 149.003906 219.660156 C 146.128906 211.910156 143.488281 203.652344 141.234375 195.179688 C 147.488281 193.417969 154.21875 192.042969 161.308594 191.074219 Z M 159.835938 178.550781 C 160.226562 182.355469 160.671875 186.171875 161.148438 189.929688 C 154.058594 190.886719 147.269531 192.257812 140.929688 194.039062 C 139.964844 190.378906 139.082031 186.679688 138.289062 182.960938 C 144.988281 181.082031 152.226562 179.578125 159.835938 178.550781 Z M 158.566406 164.585938 C 158.765625 167.230469 158.96875 169.660156 159.171875 171.800781 C 159.328125 173.664062 159.519531 175.542969 159.71875 177.410156 C 152.09375 178.421875 144.816406 179.910156 138.027344 181.804688 C 137.148438 177.625 136.367188 173.449219 135.734375 169.269531 C 142.835938 167.257812 150.507812 165.683594 158.566406 164.585938 Z M 158.492188 163.457031 C 150.433594 164.527344 142.738281 166.089844 135.558594 168.113281 C 134.375 160.304688 133.652344 152.570312 133.523438 145.136719 C 140.960938 142.996094 149.003906 141.304688 157.496094 140.148438 C 157.566406 148.550781 158 156.675781 158.492188 163.457031 Z M 184.167969 161.734375 C 175.679688 161.75 167.375 162.300781 159.402344 163.328125 C 158.824219 155.332031 158.476562 147.480469 158.421875 140.019531 C 166.636719 138.917969 175.273438 138.355469 184.167969 138.328125 Z M 210.078125 163.371094 C 202.121094 162.328125 193.800781 161.765625 185.296875 161.734375 L 185.296875 138.328125 C 194.148438 138.339844 202.800781 138.917969 211.074219 140.003906 C 211.015625 147.480469 210.667969 155.34375 210.078125 163.371094 Z M 211.003906 163.484375 C 211.492188 156.691406 211.910156 148.5625 212 140.121094 C 220.433594 141.261719 228.476562 142.9375 235.972656 145.09375 C 235.828125 152.554688 235.105469 160.347656 233.921875 168.199219 C 226.757812 166.160156 219.058594 164.570312 211.003906 163.484375 Z M 209.773438 177.410156 C 209.960938 175.542969 210.148438 173.664062 210.324219 171.800781 C 210.511719 169.675781 210.714844 167.273438 210.914062 164.640625 C 218.871094 165.726562 226.542969 167.332031 233.746094 169.398438 C 233.097656 173.535156 232.332031 177.671875 231.453125 181.804688 C 224.664062 179.910156 217.386719 178.421875 209.773438 177.410156 Z M 208.332031 189.929688 C 208.808594 186.15625 209.253906 182.355469 209.660156 178.523438 C 217.226562 179.550781 224.476562 181.011719 231.21875 182.90625 C 230.410156 186.648438 229.53125 190.367188 228.5625 194.039062 C 222.207031 192.257812 215.4375 190.886719 208.332031 189.929688 Z M 204.230469 216.347656 C 205.703125 208.339844 207.046875 199.808594 208.1875 191.058594 C 215.234375 192.015625 221.976562 193.371094 228.273438 195.136719 C 226.007812 203.625 223.347656 211.910156 220.488281 219.675781 C 215.390625 218.242188 209.933594 217.128906 204.230469 216.347656 Z M 210.324219 243.226562 C 206.726562 242.230469 202.886719 241.421875 198.871094 240.855469 C 200.691406 233.972656 202.4375 226.035156 204.042969 217.460938 C 209.671875 218.226562 215.058594 219.328125 220.101562 220.730469 C 217.023438 228.972656 213.6875 236.589844 210.324219 243.226562 Z M 221.054688 247.261719 C 218.152344 245.84375 214.960938 244.617188 211.507812 243.574219 C 214.914062 236.867188 218.238281 229.246094 221.300781 221.0625 C 226.453125 222.550781 231.234375 224.375 235.507812 226.46875 C 231.207031 233.902344 226.351562 240.855469 221.054688 247.261719 Z M 222.078125 247.78125 C 227.363281 241.378906 232.214844 234.410156 236.519531 226.976562 C 240.449219 228.972656 243.929688 231.242188 246.890625 233.699219 C 246.800781 233.816406 246.714844 233.917969 246.628906 234.03125 C 241.34375 240.769531 235.480469 246.988281 229.3125 252.46875 C 227.234375 250.746094 224.808594 249.171875 222.078125 247.78125 Z M 210.988281 244.601562 C 214.351562 245.601562 217.484375 246.769531 220.300781 248.128906 C 215.148438 254.261719 209.558594 259.871094 203.609375 264.832031 C 202.25 264.179688 200.761719 263.585938 199.175781 263.09375 C 203.03125 258.554688 207.058594 252.191406 210.988281 244.601562 Z M 198.582031 241.96875 C 202.511719 242.503906 206.28125 243.285156 209.804688 244.269531 C 205.804688 252.035156 201.757812 258.382812 197.988281 262.75 C 196.011719 262.199219 193.902344 261.765625 191.707031 261.476562 C 193.976562 257.09375 196.316406 250.34375 198.582031 241.96875 Z M 185.296875 241.046875 C 189.5 241.058594 193.601562 241.335938 197.542969 241.824219 C 195.246094 250.210938 192.847656 256.964844 190.496094 261.332031 C 188.820312 261.144531 187.074219 261.042969 185.296875 261.027344 Z M 178.984375 261.332031 C 176.632812 256.964844 174.234375 250.210938 171.953125 241.824219 C 175.851562 241.320312 179.953125 241.058594 184.167969 241.03125 L 184.167969 261.027344 C 182.40625 261.042969 180.660156 261.144531 178.984375 261.332031 Z M 171.503906 262.75 C 167.734375 258.382812 163.691406 252.035156 159.691406 244.269531 C 163.199219 243.300781 166.957031 242.519531 170.914062 241.96875 C 173.164062 250.355469 175.503906 257.09375 177.785156 261.476562 C 175.578125 261.75 173.46875 262.183594 171.503906 262.75 Z M 165.886719 264.832031 C 159.9375 259.871094 154.347656 254.261719 149.175781 248.144531 C 152.007812 246.800781 155.128906 245.613281 158.507812 244.601562 C 162.433594 252.191406 166.464844 258.554688 170.304688 263.082031 C 168.71875 263.585938 167.230469 264.164062 165.886719 264.832031 Z M 147.402344 247.769531 C 144.6875 249.171875 142.246094 250.746094 140.167969 252.453125 C 134 246.972656 128.136719 240.769531 122.863281 234.03125 C 122.765625 233.917969 122.675781 233.800781 122.589844 233.683594 C 125.523438 231.257812 129.015625 229.015625 132.972656 227.003906 C 137.277344 234.421875 142.117188 241.378906 147.402344 247.769531 Z M 157.972656 243.574219 C 154.535156 244.601562 151.328125 245.832031 148.441406 247.25 C 143.140625 240.855469 138.304688 233.917969 134 226.5 C 138.246094 224.417969 143.027344 222.609375 148.195312 221.105469 C 151.257812 229.261719 154.578125 236.882812 157.972656 243.574219 Z M 170.609375 240.855469 C 166.59375 241.421875 162.765625 242.230469 159.171875 243.226562 C 155.804688 236.589844 152.484375 228.972656 149.410156 220.746094 C 154.417969 219.355469 159.792969 218.257812 165.453125 217.476562 C 167.054688 226.035156 168.804688 233.972656 170.609375 240.855469 Z M 184.167969 216.191406 L 184.167969 239.902344 C 179.867188 239.933594 175.679688 240.222656 171.648438 240.726562 C 169.816406 233.84375 168.039062 225.90625 166.421875 217.347656 C 172.097656 216.609375 178.046875 216.21875 184.167969 216.191406 Z M 184.167969 189.511719 L 184.167969 215.0625 C 178.003906 215.078125 171.980469 215.480469 166.21875 216.21875 C 164.714844 208.207031 163.375 199.664062 162.234375 190.945312 C 169.25 190.03125 176.601562 189.542969 184.167969 189.511719 Z M 184.167969 176.890625 L 184.167969 188.382812 C 176.585938 188.398438 169.195312 188.890625 162.089844 189.800781 C 161.597656 186.042969 161.148438 182.238281 160.746094 178.40625 C 168.242188 177.453125 176.082031 176.917969 184.167969 176.890625 Z M 184.167969 175.761719 C 176.097656 175.777344 168.195312 176.296875 160.628906 177.28125 C 160.195312 173 159.804688 168.707031 159.488281 164.46875 C 167.375 163.441406 175.648438 162.894531 184.167969 162.863281 Z M 185.296875 175.761719 L 185.296875 162.878906 C 193.699219 162.90625 201.992188 163.484375 209.992188 164.527344 C 209.6875 168.75 209.296875 173.015625 208.851562 177.28125 C 201.28125 176.296875 193.382812 175.777344 185.296875 175.761719 Z M 185.296875 188.382812 L 185.296875 176.890625 C 193.355469 176.917969 201.210938 177.425781 208.75 178.394531 C 208.34375 182.226562 207.898438 186.042969 207.40625 189.816406 C 200.300781 188.890625 192.890625 188.398438 185.296875 188.382812 Z M 185.296875 215.0625 L 185.296875 189.511719 C 192.835938 189.527344 200.199219 190.019531 207.261719 190.929688 C 206.121094 199.664062 204.761719 208.207031 203.277344 216.234375 C 197.5 215.480469 191.460938 215.078125 185.296875 215.0625 Z M 185.296875 216.191406 C 191.40625 216.21875 197.355469 216.59375 203.074219 217.332031 C 201.457031 225.90625 199.679688 233.84375 197.832031 240.742188 C 193.800781 240.222656 189.597656 239.933594 185.296875 239.902344 Z M 161.4375 267.605469 C 154.507812 263.832031 147.574219 258.945312 141.003906 253.191406 C 143.027344 251.558594 145.421875 250.039062 148.136719 248.664062 C 153.292969 254.796875 158.867188 260.390625 164.789062 265.394531 C 163.546875 266.058594 162.421875 266.796875 161.4375 267.605469 Z M 204.691406 265.394531 C 210.625 260.40625 216.199219 254.796875 221.34375 248.664062 C 224.027344 250.039062 226.410156 251.558594 228.449219 253.234375 C 221.875 258.960938 214.972656 263.847656 208.042969 267.621094 C 207.058594 266.8125 205.949219 266.074219 204.691406 265.394531 Z M 196.503906 290.367188 C 195.363281 290.105469 194.265625 289.511719 193.210938 288.617188 C 195.074219 288.3125 196.835938 287.90625 198.496094 287.429688 C 200.660156 288.296875 202.785156 288.832031 205.066406 289.035156 C 202.25 289.597656 199.375 290.03125 196.503906 290.367188 Z M 207.953125 280.460938 C 203.652344 284.785156 194.523438 287.574219 184.734375 287.574219 C 174.941406 287.574219 165.828125 284.785156 161.511719 280.460938 C 159.835938 278.785156 158.984375 276.992188 158.984375 275.15625 C 158.984375 268.285156 170.535156 262.707031 184.734375 262.707031 C 194.523438 262.707031 203.652344 265.511719 207.953125 269.832031 C 209.644531 271.511719 210.496094 273.304688 210.496094 275.15625 C 210.496094 276.992188 209.644531 278.785156 207.953125 280.460938 Z M 96.0625 233.0625 C 96.121094 229.59375 97 226.222656 98.601562 222.972656 C 98.878906 223.460938 99.152344 223.941406 99.457031 224.429688 C 103.511719 231.023438 108.265625 237.140625 113.609375 242.738281 C 112.324219 245.28125 111.585938 247.898438 111.398438 250.574219 C 105.867188 245.613281 100.625 239.816406 96.0625 233.0625 Z M 112.46875 251.527344 C 112.539062 248.796875 113.21875 246.148438 114.445312 243.605469 C 120.324219 249.589844 126.910156 254.984375 134.128906 259.683594 C 133.21875 261.503906 132.714844 263.371094 132.585938 265.277344 C 125.914062 261.75 119.007812 257.226562 112.46875 251.527344 Z M 138.878906 277.222656 C 137.726562 276.078125 136.785156 274.894531 136.019531 273.695312 C 143.71875 276.484375 151.429688 278.207031 158.304688 278.984375 C 158.695312 279.722656 159.1875 280.417969 159.792969 281.113281 C 153.554688 281.386719 146.765625 280.417969 140.195312 278.453125 C 139.746094 278.046875 139.285156 277.640625 138.878906 277.222656 Z M 155.488281 286.808594 C 154.390625 286.433594 153.308594 286.027344 152.269531 285.609375 C 155.894531 286.011719 159.632812 285.78125 165.238281 285.132812 C 166.480469 285.78125 167.820312 286.359375 169.28125 286.851562 C 166.203125 287.894531 163.128906 288.210938 159.375 287.863281 C 159.359375 287.863281 159.328125 287.863281 159.328125 287.863281 C 158.042969 287.546875 156.757812 287.183594 155.488281 286.808594 Z M 213.976562 286.808594 C 212.707031 287.183594 211.433594 287.53125 210.148438 287.863281 C 210.136719 287.863281 210.136719 287.863281 210.121094 287.863281 C 206.367188 288.210938 203.320312 287.894531 200.257812 286.867188 C 201.714844 286.359375 203.074219 285.78125 204.300781 285.144531 C 209.859375 285.78125 213.585938 286.011719 217.199219 285.609375 C 216.15625 286.027344 215.074219 286.433594 213.976562 286.808594 Z M 229.269531 278.453125 C 222.699219 280.417969 215.925781 281.386719 209.714844 281.113281 C 210.308594 280.417969 210.800781 279.722656 211.203125 278.984375 C 218.050781 278.207031 225.761719 276.5 233.457031 273.707031 C 232.679688 274.894531 231.738281 276.078125 230.597656 277.222656 C 230.179688 277.640625 229.71875 278.046875 229.269531 278.453125 Z M 236.882812 265.292969 C 236.765625 263.371094 236.246094 261.519531 235.335938 259.683594 C 242.570312 254.984375 249.15625 249.605469 255.035156 243.605469 C 256.289062 246.179688 256.941406 248.839844 257 251.542969 C 250.457031 257.226562 243.554688 261.765625 236.882812 265.292969 Z M 258.082031 250.589844 C 257.894531 247.914062 257.15625 245.296875 255.859375 242.75 C 261.230469 237.140625 265.980469 231.023438 270.039062 224.429688 C 270.328125 223.941406 270.601562 223.460938 270.890625 222.972656 C 272.507812 226.253906 273.359375 229.636719 273.402344 233.09375 C 268.839844 239.832031 263.613281 245.628906 258.082031 250.589844 Z M 274.457031 231.457031 C 274.183594 228.160156 273.214844 224.953125 271.585938 221.8125 C 273.347656 218.734375 274.964844 215.609375 276.378906 212.429688 C 278.15625 216 279.066406 219.644531 279.109375 223.390625 C 277.664062 226.210938 276.105469 228.898438 274.457031 231.457031 Z M 270.660156 186.300781 C 266.386719 182.671875 261.273438 179.375 255.511719 176.457031 C 257 168.675781 257.820312 160.984375 257.921875 153.59375 C 263.914062 156.644531 269.160156 160.117188 273.519531 163.917969 C 273.519531 170.789062 272.683594 177.859375 270.964844 185.085938 C 270.875 185.492188 270.761719 185.898438 270.660156 186.300781 Z M 220.433594 94.601562 C 223.507812 97.363281 226.121094 100.761719 228.304688 104.765625 C 222.035156 103.03125 215.335938 101.6875 208.34375 100.746094 C 207.320312 97.058594 206.035156 93.835938 204.445312 91.277344 C 210.035156 92.058594 215.390625 93.171875 220.433594 94.601562 Z M 149.003906 94.644531 C 154.042969 93.214844 159.429688 92.085938 165.035156 91.289062 C 163.445312 93.851562 162.175781 97.074219 161.148438 100.746094 C 154.160156 101.699219 147.460938 103.046875 141.191406 104.765625 C 143.34375 100.804688 145.941406 97.40625 149.003906 94.644531 Z M 98.515625 185.085938 C 96.8125 177.859375 95.976562 170.773438 95.960938 163.90625 C 100.277344 160.160156 105.519531 156.703125 111.558594 153.640625 C 111.671875 160.96875 112.480469 168.574219 113.953125 176.296875 C 108.179688 179.203125 103.066406 182.46875 98.777344 186.085938 C 98.691406 185.753906 98.601562 185.421875 98.515625 185.085938 Z M 85.777344 211.792969 C 85.777344 207.816406 86.746094 203.941406 88.582031 200.242188 C 89.664062 203.886719 90.992188 207.5 92.523438 211.054688 C 90.734375 214.367188 89.679688 217.78125 89.347656 221.25 C 88.046875 218.53125 86.863281 215.699219 85.808594 212.734375 C 85.792969 212.429688 85.777344 212.113281 85.777344 211.792969 Z M 91.121094 229.507812 C 90.820312 228.351562 90.617188 227.191406 90.5 226.023438 C 91.886719 228.582031 93.359375 231.039062 94.921875 233.367188 C 94.921875 233.382812 94.921875 233.394531 94.921875 233.410156 C 94.921875 235.074219 95.109375 236.722656 95.46875 238.355469 C 93.867188 235.476562 92.421875 232.527344 91.121094 229.507812 Z M 102.761719 249.5625 C 102.691406 249.488281 102.617188 249.429688 102.53125 249.402344 C 101 247.320312 99.570312 245.179688 98.214844 242.996094 C 97.027344 240.410156 96.320312 237.761719 96.121094 235.089844 C 100.683594 241.59375 105.867188 247.203125 111.324219 252.003906 C 111.339844 254.652344 111.917969 257.269531 113.03125 259.8125 C 109.246094 256.804688 105.75 253.40625 102.761719 249.5625 Z M 120.554688 268.300781 C 119.066406 266.882812 117.765625 265.421875 116.683594 263.917969 C 122.242188 267.695312 128.25 270.714844 134.332031 273.058594 C 135.167969 274.632812 136.296875 276.152344 137.726562 277.640625 C 133.074219 276.035156 128.613281 273.941406 124.582031 271.425781 C 123.226562 270.410156 121.882812 269.386719 120.554688 268.300781 Z M 248.925781 268.300781 C 247.566406 269.398438 246.183594 270.46875 244.78125 271.496094 C 240.765625 274.011719 236.304688 276.078125 231.683594 277.671875 C 233.097656 276.210938 234.238281 274.664062 235.105469 273.074219 C 241.183594 270.746094 247.191406 267.722656 252.753906 263.949219 C 251.683594 265.4375 250.398438 266.898438 248.925781 268.300781 Z M 266.933594 249.402344 C 266.863281 249.429688 266.789062 249.488281 266.730469 249.5625 C 263.726562 253.421875 260.21875 256.820312 256.433594 259.84375 C 257.546875 257.28125 258.125 254.664062 258.140625 252.019531 C 263.597656 247.21875 268.78125 241.609375 273.347656 235.132812 C 273.144531 237.804688 272.421875 240.4375 271.253906 243.027344 C 269.894531 245.195312 268.464844 247.320312 266.933594 249.402344 Z M 273.996094 238.355469 C 274.355469 236.734375 274.546875 235.074219 274.546875 233.410156 C 276.105469 231.066406 277.578125 228.640625 278.964844 226.066406 C 278.847656 227.222656 278.644531 228.363281 278.359375 229.519531 C 277.042969 232.527344 275.597656 235.492188 273.996094 238.355469 Z M 277.835938 147.234375 C 275.945312 144.773438 273.664062 142.417969 271.078125 140.164062 C 270.183594 137.371094 269.128906 134.625 267.917969 131.949219 C 269.78125 133.742188 271.441406 135.59375 272.855469 137.53125 C 274.703125 140.667969 276.351562 143.921875 277.835938 147.234375 Z M 246.585938 111.433594 C 241.472656 109.015625 235.839844 106.921875 229.804688 105.1875 C 227.839844 101.367188 225.5 98.070312 222.773438 95.265625 C 226.785156 96.511719 230.585938 97.96875 234.109375 99.605469 C 235.480469 100.371094 236.839844 101.152344 238.179688 101.992188 C 241.359375 104.59375 244.175781 107.757812 246.585938 111.433594 Z M 200.171875 88.023438 C 200.820312 88.542969 201.425781 89.136719 202.019531 89.828125 C 196.605469 89.179688 191.015625 88.832031 185.296875 88.804688 L 185.296875 86.878906 C 190.320312 86.894531 195.289062 87.285156 200.171875 88.023438 Z M 184.167969 86.867188 L 184.167969 88.804688 C 178.480469 88.832031 172.875 89.195312 167.460938 89.84375 C 168.039062 89.152344 168.660156 88.542969 169.308594 88.023438 C 174.160156 87.285156 179.128906 86.894531 184.167969 86.867188 Z M 96.695312 137.472656 C 98.097656 135.578125 99.714844 133.742188 101.550781 131.992188 C 100.320312 134.695312 99.265625 137.472656 98.371094 140.308594 C 95.742188 142.578125 93.476562 144.976562 91.585938 147.4375 C 93.117188 144.007812 94.820312 140.683594 96.695312 137.472656 Z M 82.789062 187.023438 C 82.976562 184.175781 83.640625 181.386719 84.769531 178.667969 C 85.144531 185.363281 86.285156 192.042969 88.117188 198.621094 C 86.242188 202.078125 85.128906 205.632812 84.78125 209.292969 C 83.453125 202.671875 82.761719 195.859375 82.761719 188.960938 C 82.761719 188.3125 82.773438 187.660156 82.789062 187.023438 Z M 81.027344 188.71875 C 81.027344 188.789062 81.042969 188.847656 81.070312 188.917969 C 81.070312 188.933594 81.054688 188.949219 81.054688 188.960938 C 81.054688 216.679688 91.84375 242.75 111.425781 262.359375 C 131.011719 281.964844 157.035156 292.75 184.734375 292.75 C 241.863281 292.75 288.351562 246.234375 288.410156 189.050781 C 288.453125 188.949219 288.480469 188.832031 288.480469 188.71875 C 288.480469 187.804688 288.421875 186.910156 288.335938 186.011719 C 287.601562 159.394531 276.929688 134.464844 258.039062 115.566406 C 238.457031 95.960938 212.433594 85.160156 184.734375 85.160156 C 157.046875 85.160156 131.011719 95.960938 111.425781 115.566406 C 92.421875 134.597656 81.734375 159.695312 81.128906 186.519531 C 81.054688 187.257812 81.027344 187.980469 81.027344 188.71875 " fill-opacity="1" fill-rule="nonzero"/><g clip-path="url(#3ebf2e5c76)"><path fill="#ffffff" d="M 294.488281 209.175781 C 292.914062 209.308594 291.902344 210.363281 292.222656 211.519531 C 292.539062 212.691406 294.070312 213.527344 295.644531 213.398438 C 306.648438 212.472656 315.488281 210.8125 321.566406 208.441406 C 328.023438 205.921875 331.558594 202.570312 331.558594 198.390625 C 331.558594 189.714844 315.039062 179.652344 288.351562 170.410156 C 262.585938 161.488281 227.046875 153.046875 187.835938 147.21875 C 168.023438 144.285156 149.191406 142.289062 132.078125 141.1875 C 107.296875 139.597656 86.066406 139.917969 70.746094 142 C 54.484375 144.210938 44.5625 148.5625 43.539062 154.953125 C 43.480469 155.332031 43.449219 155.707031 43.449219 156.066406 C 43.449219 159.667969 46.136719 163.429688 51.105469 167.230469 C 55.886719 170.859375 62.847656 174.605469 71.597656 178.304688 C 73.042969 178.914062 74.789062 178.609375 75.496094 177.597656 C 76.203125 176.601562 75.613281 175.296875 74.167969 174.675781 C 65.949219 171.207031 59.464844 167.738281 55.148438 164.441406 C 51.335938 161.535156 49.269531 158.828125 49.269531 156.445312 C 49.269531 156.210938 49.300781 155.996094 49.328125 155.808594 C 50.050781 151.3125 58.414062 148.058594 72.261719 146.179688 C 87.050781 144.152344 107.757812 143.878906 132.078125 145.425781 C 149.003906 146.511719 167.632812 148.492188 187.171875 151.398438 C 225.90625 157.136719 260.941406 165.453125 286.257812 174.214844 C 310.632812 182.660156 325.726562 191.261719 325.726562 198.015625 C 325.726562 200.601562 323.167969 202.828125 318.492188 204.652344 C 312.988281 206.792969 304.800781 208.308594 294.488281 209.175781 " fill-opacity="1" fill-rule="nonzero"/></g><g clip-path="url(#81737ef88c)"><path fill="#ffffff" d="M 291.789062 82.789062 L 291.933594 82.789062 C 292.914062 95.730469 303.226562 106.066406 316.152344 107.035156 L 316.152344 107.195312 C 303.226562 108.164062 292.914062 118.503906 291.933594 131.445312 L 291.789062 131.445312 C 290.804688 118.503906 280.496094 108.164062 267.570312 107.195312 L 267.570312 107.035156 C 280.496094 106.066406 290.804688 95.730469 291.789062 82.789062 " fill-opacity="1" fill-rule="evenodd"/></g><path fill="#ffffff" d="M 316.542969 127.4375 L 316.613281 127.4375 C 317.019531 132.949219 321.40625 137.34375 326.894531 137.75 L 326.894531 137.820312 C 321.40625 138.226562 317.019531 142.621094 316.613281 148.117188 L 316.542969 148.117188 C 316.136719 142.621094 311.746094 138.226562 306.246094 137.820312 L 306.246094 137.75 C 311.746094 137.34375 316.136719 132.949219 316.542969 127.4375 " fill-opacity="1" fill-rule="evenodd"/><path stroke-linecap="butt" transform="matrix(0.749204, -0.0345507, 0.0345507, 0.749204, 136.744404, 147.41173)" fill="none" stroke-linejoin="miter" d="M 11.3035 54.998899 L 25.245311 55.000542 C 26.037816 55.000593 26.657885 54.33053 26.657215 53.553632 L 26.653178 26.733303 C 26.653228 25.940797 27.322925 25.325162 28.105025 25.324732 L 33.710037 25.322523 C 34.486934 25.321854 35.104363 24.709022 35.103934 23.926922 L 35.103557 11.611745 C 35.100968 10.87647 34.485332 10.206773 33.708435 10.207442 L 2.803348 10.148238 C 2.010843 10.148187 1.393174 10.766222 1.393123 11.558728 L 1.396064 23.931375 C 1.396733 24.708273 2.009565 25.325701 2.802071 25.325752 L 8.391474 25.322823 C 9.18398 25.322874 9.854283 25.937739 9.854232 26.730245 L 9.855631 53.607805 C 9.8563 54.384703 10.526603 54.999568 11.3035 54.998899 Z M 11.3035 54.998899 " stroke="#231f20" stroke-width="11.269819" stroke-opacity="1" stroke-miterlimit="4"/><path stroke-linecap="butt" transform="matrix(0.749989, -0.00402318, 0.00402318, 0.749989, 165.119348, 146.038877)" fill="none" stroke-linejoin="miter" d="M 2.858373 55.000748 L 44.848554 55.002035 C 45.629821 55.001018 46.242512 54.384504 46.241494 53.603237 L 46.24131 42.957249 C 46.245501 42.176011 45.571696 41.563012 44.795638 41.564058 L 19.602565 41.564332 C 18.810882 41.565294 18.194396 40.947395 18.193379 40.166128 C 18.192417 39.374445 18.810288 38.763167 19.601972 38.762206 L 42.60752 38.760613 C 43.388786 38.759596 44.001477 38.143082 44.000432 37.367023 L 43.999449 27.840839 C 44.00364 27.0596 43.329836 26.446602 42.553805 26.442439 L 19.600339 26.444311 C 18.808656 26.445273 18.19217 25.827373 18.196333 25.051343 C 18.195372 24.25966 18.808062 23.643146 19.599746 23.642184 L 44.850109 23.642217 C 45.626168 23.641171 46.244067 23.024685 46.243021 22.248627 L 46.242782 11.613056 C 46.24182 10.821373 45.630542 10.203501 44.849276 10.204519 L 2.801804 10.202924 C 2.01012 10.203886 1.392221 10.820372 1.393183 11.612055 L 1.391867 53.607444 C 1.392913 54.383503 2.077106 55.001765 2.858373 55.000748 Z M 2.858373 55.000748 " stroke="#231f20" stroke-width="11.269819" stroke-opacity="1" stroke-miterlimit="4"/><path stroke-linecap="butt" transform="matrix(0.749378, 0.0305313, -0.0305313, 0.749378, 202.017925, 145.868194)" fill="none" stroke-linejoin="miter" d="M 12.819506 55.001559 L 44.793947 55.002013 C 45.575822 55.001433 46.189625 54.330056 46.189258 53.553386 L 46.189529 41.277573 C 46.188949 40.495699 45.574817 39.879563 44.792942 39.880143 L 19.600163 39.87966 C 18.80788 39.880663 18.193747 39.264528 18.19338 38.487857 L 18.194037 26.733294 C 18.193034 25.941012 18.808957 25.321675 19.601452 25.325875 L 44.794019 25.321155 C 45.576106 25.325779 46.189909 24.654402 46.189329 23.872528 L 46.190236 11.612327 C 46.189233 10.820045 45.5751 10.203909 44.793226 10.204489 L 12.823988 10.203823 C 6.219686 10.207051 1.395859 15.016784 1.394308 21.631706 L 1.396826 43.571667 C 1.395275 50.186588 6.220196 54.999371 12.819506 55.001559 Z M 12.819506 55.001559 " stroke="#231f20" stroke-width="11.269819" stroke-opacity="1" stroke-miterlimit="4"/><g fill="#ffffff" fill-opacity="1"><g transform="translate(138.644695, 188.617932)"><g><path d="M 8.472656 -0.390625 L 18.917969 -0.871094 C 19.503906 -0.898438 19.945312 -1.425781 19.917969 -2.011719 L 18.992188 -22.105469 C 18.964844 -22.691406 19.445312 -23.175781 20.03125 -23.203125 L 24.226562 -23.398438 C 24.816406 -23.425781 25.253906 -23.90625 25.226562 -24.492188 L 24.800781 -33.722656 C 24.777344 -34.269531 24.292969 -34.75 23.703125 -34.722656 L 0.546875 -33.695312 C -0.0390625 -33.671875 -0.480469 -33.1875 -0.453125 -32.601562 L -0.0234375 -23.328125 C 0.00390625 -22.742188 0.484375 -22.300781 1.070312 -22.328125 L 5.265625 -22.523438 C 5.855469 -22.550781 6.378906 -22.113281 6.40625 -21.523438 L 7.335938 -1.390625 C 7.363281 -0.800781 7.886719 -0.363281 8.472656 -0.390625 Z M 8.472656 -0.390625 "/></g></g></g><g fill="#ffffff" fill-opacity="1"><g transform="translate(165.340623, 187.288283)"><g><path d="M 2.140625 -0.0117188 L 33.636719 -0.179688 C 34.222656 -0.183594 34.683594 -0.648438 34.679688 -1.234375 L 34.636719 -9.214844 C 34.632812 -9.800781 34.128906 -10.261719 33.539062 -10.257812 L 14.644531 -10.15625 C 14.054688 -10.152344 13.589844 -10.613281 13.585938 -11.199219 C 13.585938 -11.789062 14.042969 -12.253906 14.632812 -12.257812 L 31.890625 -12.347656 C 32.476562 -12.351562 32.9375 -12.816406 32.933594 -13.40625 L 32.894531 -20.542969 C 32.894531 -21.132812 32.386719 -21.589844 31.800781 -21.585938 L 14.582031 -21.496094 C 13.996094 -21.492188 13.53125 -21.949219 13.527344 -22.539062 C 13.523438 -23.125 13.984375 -23.589844 14.570312 -23.59375 L 33.507812 -23.695312 C 34.097656 -23.699219 34.558594 -24.164062 34.554688 -24.75 L 34.511719 -32.730469 C 34.507812 -33.316406 34.042969 -33.777344 33.457031 -33.773438 L 1.917969 -33.605469 C 1.332031 -33.601562 0.871094 -33.136719 0.875 -32.550781 L 1.042969 -1.054688 C 1.046875 -0.46875 1.554688 -0.0078125 2.140625 -0.0117188 Z M 2.140625 -0.0117188 "/></g></g></g><g fill="#ffffff" fill-opacity="1"><g transform="translate(200.338701, 187.083998)"><g><path d="M 9.609375 0.390625 L 33.566406 1.367188 C 34.152344 1.390625 34.636719 0.90625 34.660156 0.320312 L 35.035156 -8.871094 C 35.058594 -9.457031 34.613281 -9.9375 34.027344 -9.960938 L 15.148438 -10.730469 C 14.558594 -10.753906 14.117188 -11.234375 14.140625 -11.820312 L 14.5 -20.632812 C 14.523438 -21.21875 15.003906 -21.664062 15.589844 -21.640625 L 34.472656 -20.871094 C 35.058594 -20.847656 35.542969 -21.332031 35.566406 -21.917969 L 35.941406 -31.105469 C 35.964844 -31.695312 35.519531 -32.175781 34.933594 -32.199219 L 10.976562 -33.175781 C 6.023438 -33.375 2.269531 -29.914062 2.066406 -24.964844 L 1.398438 -8.515625 C 1.195312 -3.566406 4.65625 0.191406 9.609375 0.390625 Z M 9.609375 0.390625 "/></g></g></g><path stroke-linecap="butt" transform="matrix(1.075022, -0.0861713, 0.0861713, 1.075022, 122.837766, 193.550142)" fill="none" stroke-linejoin="miter" d="M 8.475213 13.24146 C 5.706399 13.241171 3.666415 12.670682 2.358874 11.530284 C 1.203962 10.525663 0.623899 9.149253 0.625617 7.405241 C 0.623724 5.660939 1.202918 4.282977 2.359301 3.274675 C 3.667777 2.136853 5.704473 1.569747 8.476898 1.570326 C 10.101186 1.569714 11.445127 1.757381 12.509008 2.129718 C 13.56928 2.501765 14.396869 3.011407 14.984556 3.658066 C 15.572532 4.301115 15.963794 5.041038 16.155019 5.873937 L 11.209655 5.873595 C 10.71602 5.005555 9.806245 4.569265 8.476139 4.571656 C 7.342444 4.571623 6.506058 4.897014 5.970014 5.555339 C 5.543027 6.077061 5.32659 6.691966 5.327345 7.407855 C 5.328388 8.120133 5.540589 8.736694 5.967556 9.257827 C 6.503539 9.914876 7.341988 10.243707 8.475683 10.24374 C 9.805789 10.241349 10.716424 9.805633 11.211776 8.929661 L 16.15714 8.930003 C 15.962764 9.768328 15.57257 10.511018 14.982948 11.157781 C 14.397225 11.801224 13.571353 12.312773 12.50591 12.685209 C 11.444367 13.054324 10.103112 13.241138 8.475213 13.24146 Z M 8.475213 13.24146 " stroke="#231f20" stroke-width="1.9" stroke-opacity="1" stroke-miterlimit="4"/><path stroke-linecap="butt" transform="matrix(1.076929, -0.0576491, 0.0576491, 1.076929, 141.152602, 192.084479)" fill="none" stroke-linejoin="miter" d="M 8.475064 13.240961 C 5.707469 13.241525 3.666837 12.671631 2.360401 11.531668 C 1.2031 10.519387 0.623898 9.142685 0.626605 7.398141 C 0.625308 5.660636 1.203172 4.28421 2.360004 3.272482 C 3.665056 2.13448 5.70519 1.561775 8.476401 1.561404 C 11.247612 1.561034 13.288051 2.134545 14.594487 3.274507 C 15.748365 4.282978 16.327567 5.65968 16.328864 7.397185 C 16.329774 9.141923 15.751716 10.521965 14.595078 11.530077 C 13.286215 12.671502 11.246275 13.240591 8.475064 13.240961 Z M 8.476428 10.234074 C 9.611793 10.233188 10.445333 9.907833 10.977047 9.258007 C 11.404136 8.73316 11.618667 8.113509 11.617024 7.39886 C 11.618997 6.684405 11.405385 6.067225 10.976187 5.547322 C 10.445454 4.891403 9.610596 4.563789 8.475424 4.561058 C 7.340059 4.561943 6.506326 4.890916 5.966991 5.547588 C 5.540095 6.068818 5.329374 6.685046 5.327401 7.399501 C 5.329238 8.110533 5.542657 8.73133 5.967851 9.258274 C 6.506205 9.907346 7.341063 10.234959 8.476428 10.234074 Z M 8.476428 10.234074 " stroke="#231f20" stroke-width="1.9" stroke-opacity="1" stroke-miterlimit="4"/><path stroke-linecap="butt" transform="matrix(1.07813, -0.0270943, 0.0270943, 1.07813, 159.703691, 191.079069)" fill="none" stroke-linejoin="miter" d="M 17.882854 12.9992 L 12.288659 12.999917 L 5.953988 5.413221 L 5.951728 13.000085 L 1.248817 13.001461 L 1.251641 1.787817 L 6.842124 1.79063 L 13.181417 9.337588 L 13.179055 1.790463 L 17.881966 1.789086 Z M 17.882854 12.9992 " stroke="#231f20" stroke-width="1.9" stroke-opacity="1" stroke-miterlimit="4"/><path stroke-linecap="butt" transform="matrix(1.078457, 0.00532937, -0.00532937, 1.078457, 180.643968, 190.55741)" fill="none" stroke-linejoin="miter" d="M 17.881731 12.999278 L 12.289264 13.001559 L 5.952994 5.415654 L 5.954254 13.000266 L 1.24919 13.001784 L 1.251728 1.787838 L 6.844213 1.789178 L 13.180286 9.335241 L 13.179223 1.790471 L 17.884287 1.788953 Z M 17.881731 12.999278 " stroke="#231f20" stroke-width="1.9" stroke-opacity="1" stroke-miterlimit="4"/><path stroke-linecap="butt" transform="matrix(1.077916, 0.0345656, -0.0345656, 1.077916, 201.559004, 190.691999)" fill="none" stroke-linejoin="miter" d="M 14.748978 13.000115 L 1.250041 13.001743 L 1.249261 1.789454 L 14.132189 1.78946 L 14.134112 4.561674 L 5.951417 4.563148 L 5.953417 6.320671 L 12.867777 6.320005 L 12.868066 8.47621 L 5.953706 8.476876 L 5.951854 10.227274 L 14.750674 10.227785 Z M 14.748978 13.000115 " stroke="#231f20" stroke-width="1.9" stroke-opacity="1" stroke-miterlimit="4"/><path stroke-linecap="butt" transform="matrix(1.076699, 0.0617871, -0.0617871, 1.076699, 218.394482, 191.225613)" fill="none" stroke-linejoin="miter" d="M 8.476716 13.242742 C 5.704902 13.242172 3.665991 12.673487 2.359568 11.529454 C 1.202681 10.525586 0.626764 9.150977 0.624585 7.40604 C 0.626023 5.660896 1.203754 4.285388 2.36098 3.272075 C 3.667264 2.137741 5.706314 1.570858 8.478128 1.571427 C 10.099703 1.569072 11.445568 1.756682 12.508076 2.127439 C 13.570792 2.501813 14.394463 3.009628 14.983119 3.657909 C 15.571567 4.302574 15.962288 5.04203 16.155281 5.876276 L 11.210173 5.873443 C 10.717756 5.005588 9.80401 4.571874 8.476168 4.571885 C 7.3406 4.571746 6.5068 4.89895 5.967535 5.553909 C 5.540339 6.075458 5.3291 6.693454 5.326379 7.404696 C 5.327482 8.119346 5.540776 8.738376 5.969672 9.257961 C 6.504294 9.912971 7.339493 10.242353 8.47506 10.242492 C 9.802903 10.24248 10.717471 9.805431 11.211325 8.928142 L 16.156434 8.930974 C 15.965085 9.769136 15.572243 10.510021 14.985347 11.15683 C 14.394834 11.803847 13.57141 12.311854 12.508048 12.684882 C 11.444479 13.054295 10.102115 13.243795 8.476716 13.242742 Z M 8.476716 13.242742 " stroke="#231f20" stroke-width="1.9" stroke-opacity="1" stroke-miterlimit="4"/><path stroke-linecap="butt" transform="matrix(1.074861, 0.0881641, -0.0881641, 1.074861, 236.715649, 192.295768)" fill="none" stroke-linejoin="miter" d="M 9.562397 13.001175 L 4.859794 13.001676 L 4.858136 4.563219 L 0.468057 4.563525 L 0.469559 1.790513 L 13.952319 1.789401 L 13.954427 4.562116 L 9.560739 4.562718 Z M 9.562397 13.001175 " stroke="#231f20" stroke-width="1.9" stroke-opacity="1" stroke-miterlimit="4"/><g fill="#ffffff" fill-opacity="1"><g transform="translate(123.957993, 207.525433)"><g><path d="M 9.125 -0.46875 C 6.144531 -0.226562 3.90625 -0.664062 2.40625 -1.78125 C 1.082031 -2.75 0.34375 -4.175781 0.1875 -6.0625 C 0.0390625 -7.9375 0.539062 -9.46875 1.6875 -10.65625 C 3 -11.988281 5.144531 -12.773438 8.125 -13.015625 C 9.875 -13.148438 11.332031 -13.066406 12.5 -12.765625 C 13.675781 -12.460938 14.609375 -11.984375 15.296875 -11.328125 C 15.984375 -10.679688 16.46875 -9.921875 16.75 -9.046875 L 11.453125 -8.625 C 10.835938 -9.519531 9.816406 -9.910156 8.390625 -9.796875 C 7.171875 -9.691406 6.300781 -9.265625 5.78125 -8.515625 C 5.363281 -7.921875 5.1875 -7.238281 5.25 -6.46875 C 5.3125 -5.695312 5.59375 -5.050781 6.09375 -4.53125 C 6.726562 -3.863281 7.65625 -3.582031 8.875 -3.6875 C 10.300781 -3.800781 11.25 -4.351562 11.71875 -5.34375 L 17.015625 -5.765625 C 16.878906 -4.835938 16.519531 -4.003906 15.9375 -3.265625 C 15.363281 -2.523438 14.519531 -1.90625 13.40625 -1.40625 C 12.300781 -0.914062 10.875 -0.601562 9.125 -0.46875 Z M 9.125 -0.46875 "/></g></g></g><g fill="#ffffff" fill-opacity="1"><g transform="translate(141.90204, 206.084551)"><g><path d="M 9.140625 -0.21875 C 6.160156 -0.0625 3.9375 -0.5625 2.46875 -1.71875 C 1.15625 -2.738281 0.445312 -4.1875 0.34375 -6.0625 C 0.25 -7.9375 0.796875 -9.453125 1.984375 -10.609375 C 3.328125 -11.910156 5.488281 -12.640625 8.46875 -12.796875 C 11.457031 -12.960938 13.6875 -12.46875 15.15625 -11.3125 C 16.457031 -10.289062 17.15625 -8.84375 17.25 -6.96875 C 17.351562 -5.09375 16.816406 -3.578125 15.640625 -2.421875 C 14.296875 -1.117188 12.128906 -0.382812 9.140625 -0.21875 Z M 8.96875 -3.46875 C 10.1875 -3.539062 11.0625 -3.9375 11.59375 -4.65625 C 12.03125 -5.257812 12.226562 -5.941406 12.1875 -6.703125 C 12.144531 -7.460938 11.878906 -8.109375 11.390625 -8.640625 C 10.773438 -9.328125 9.859375 -9.632812 8.640625 -9.5625 C 7.410156 -9.5 6.53125 -9.097656 6 -8.359375 C 5.5625 -7.773438 5.363281 -7.101562 5.40625 -6.34375 C 5.445312 -5.582031 5.710938 -4.925781 6.203125 -4.375 C 6.816406 -3.707031 7.738281 -3.40625 8.96875 -3.46875 Z M 8.96875 -3.46875 "/></g></g></g><g fill="#ffffff" fill-opacity="1"><g transform="translate(160.055916, 205.09476)"><g><path d="M 19.28125 -0.484375 L 13.25 -0.328125 L 6.21875 -8.328125 L 6.421875 -0.15625 L 1.34375 -0.03125 L 1.046875 -12.125 L 7.078125 -12.28125 L 14.109375 -4.3125 L 13.90625 -12.453125 L 18.984375 -12.578125 Z M 19.28125 -0.484375 "/></g></g></g><g fill="#ffffff" fill-opacity="1"><g transform="translate(180.574686, 204.577356)"><g><path d="M 19.28125 0.09375 L 13.25 0.0625 L 6.46875 -8.140625 L 6.421875 0.03125 L 1.34375 0 L 1.40625 -12.09375 L 7.4375 -12.0625 L 14.21875 -3.890625 L 14.265625 -12.03125 L 19.34375 -12 Z M 19.28125 0.09375 "/></g></g></g><g fill="#ffffff" fill-opacity="1"><g transform="translate(201.109651, 204.704913)"><g><path d="M 15.890625 0.515625 L 1.34375 0.046875 L 1.734375 -12.046875 L 15.609375 -11.609375 L 15.515625 -8.609375 L 6.71875 -8.890625 L 6.65625 -7 L 14.109375 -6.765625 L 14.03125 -4.4375 L 6.578125 -4.671875 L 6.515625 -2.78125 L 15.984375 -2.46875 Z M 15.890625 0.515625 "/></g></g></g><g fill="#ffffff" fill-opacity="1"><g transform="translate(217.59125, 205.222702)"><g><path d="M 9.109375 0.796875 C 6.128906 0.617188 3.972656 -0.125 2.640625 -1.4375 C 1.453125 -2.59375 0.910156 -4.109375 1.015625 -5.984375 C 1.117188 -7.867188 1.828125 -9.316406 3.140625 -10.328125 C 4.617188 -11.472656 6.847656 -11.957031 9.828125 -11.78125 C 11.578125 -11.6875 13.007812 -11.40625 14.125 -10.9375 C 15.25 -10.46875 16.109375 -9.863281 16.703125 -9.125 C 17.296875 -8.394531 17.671875 -7.578125 17.828125 -6.671875 L 12.515625 -6.984375 C 12.023438 -7.953125 11.066406 -8.472656 9.640625 -8.546875 C 8.410156 -8.617188 7.488281 -8.316406 6.875 -7.640625 C 6.382812 -7.109375 6.117188 -6.457031 6.078125 -5.6875 C 6.035156 -4.914062 6.226562 -4.238281 6.65625 -3.65625 C 7.1875 -2.914062 8.066406 -2.507812 9.296875 -2.4375 C 10.722656 -2.363281 11.734375 -2.785156 12.328125 -3.703125 L 17.640625 -3.390625 C 17.378906 -2.492188 16.910156 -1.710938 16.234375 -1.046875 C 15.554688 -0.390625 14.632812 0.101562 13.46875 0.4375 C 12.3125 0.769531 10.859375 0.890625 9.109375 0.796875 Z M 9.109375 0.796875 "/></g></g></g><g fill="#ffffff" fill-opacity="1"><g transform="translate(235.569515, 206.268958)"><g><path d="M 10.28125 0.84375 L 5.21875 0.421875 L 5.96875 -8.640625 L 1.25 -9.015625 L 1.484375 -12 L 15.984375 -10.8125 L 15.75 -7.828125 L 11.03125 -8.21875 Z M 10.28125 0.84375 "/></g></g></g></svg>